<svg width="26" height="26" viewBox="0 0 26 26" fill="none" xmlns="http://www.w3.org/2000/svg">
<path fill-rule="evenodd" clip-rule="evenodd" d="M20.6917 20.7563C21.3309 19.7813 21.5692 19.283 22.0567 18.1889C18.4601 16.8239 17.8859 11.6997 21.4392 9.73883C20.3559 8.37383 18.8284 7.58301 17.3876 7.58301C16.3476 7.58301 15.6326 7.85385 14.9934 8.10302C14.4517 8.30885 13.9642 8.493 13.3576 8.493C12.7076 8.493 12.1334 8.28719 11.5267 8.07052C10.8659 7.83219 10.1726 7.58301 9.3059 7.58301C7.69173 7.58301 5.96924 8.56884 4.87507 10.2588C3.33674 12.6422 3.60757 17.1055 6.08841 20.9188C6.97674 22.2838 8.16841 23.8113 9.71757 23.833C10.3676 23.8438 10.7901 23.6489 11.2559 23.443C11.7867 23.2047 12.3609 22.9447 13.3684 22.9447C14.3759 22.9338 14.9392 23.2047 15.4701 23.443C15.9251 23.6489 16.3367 23.8438 16.9759 23.833C18.5467 23.8113 19.8034 22.1213 20.6917 20.7563Z" fill="#464545"/>
<path fill-rule="evenodd" clip-rule="evenodd" d="M17.1605 2.16699C17.3338 3.35866 16.8463 4.53951 16.2071 5.36284C15.5246 6.25117 14.333 6.94449 13.1846 6.90115C12.9788 5.75282 13.5096 4.57198 14.1596 3.78115C14.8855 2.91448 16.1096 2.24283 17.1605 2.16699Z" fill="#464545"/>
</svg>
