<svg width="164" height="128" viewBox="0 0 164 128" fill="none" xmlns="http://www.w3.org/2000/svg">
<circle cx="3.45401" cy="2.90909" r="2.90909" fill="white" fill-opacity="0.3"/>
<circle cx="20.9081" cy="2.90909" r="2.90909" fill="white" fill-opacity="0.3"/>
<circle cx="38.3632" cy="2.90909" r="2.90909" fill="white" fill-opacity="0.3"/>
<circle cx="55.8173" cy="2.90909" r="2.90909" fill="white" fill-opacity="0.3"/>
<circle cx="73.2724" cy="2.90909" r="2.90909" fill="white" fill-opacity="0.3"/>
<circle cx="90.7265" cy="2.90909" r="2.90909" fill="white" fill-opacity="0.3"/>
<circle cx="108.182" cy="2.90909" r="2.90909" fill="white" fill-opacity="0.3"/>
<circle cx="125.636" cy="2.90909" r="2.90909" fill="white" fill-opacity="0.3"/>
<circle cx="143.09" cy="2.90909" r="2.90909" fill="white" fill-opacity="0.3"/>
<circle cx="160.545" cy="2.90909" r="2.90909" fill="white" fill-opacity="0.3"/>
<circle cx="3.45401" cy="20.3632" r="2.90909" fill="white" fill-opacity="0.3"/>
<circle cx="20.9081" cy="20.3632" r="2.90909" fill="white" fill-opacity="0.3"/>
<circle cx="38.3632" cy="20.3632" r="2.90909" fill="white" fill-opacity="0.3"/>
<circle cx="55.8173" cy="20.3632" r="2.90909" fill="white" fill-opacity="0.3"/>
<circle cx="73.2724" cy="20.3632" r="2.90909" fill="white" fill-opacity="0.3"/>
<circle cx="90.7265" cy="20.3632" r="2.90909" fill="white" fill-opacity="0.3"/>
<circle cx="108.182" cy="20.3632" r="2.90909" fill="white" fill-opacity="0.3"/>
<circle cx="125.636" cy="20.3632" r="2.90909" fill="white" fill-opacity="0.3"/>
<circle cx="143.09" cy="20.3632" r="2.90909" fill="white" fill-opacity="0.3"/>
<circle cx="160.545" cy="20.3632" r="2.90909" fill="white" fill-opacity="0.3"/>
<circle cx="3.45401" cy="37.8183" r="2.90909" fill="white" fill-opacity="0.3"/>
<circle cx="20.9081" cy="37.8183" r="2.90909" fill="white" fill-opacity="0.3"/>
<circle cx="38.3632" cy="37.8183" r="2.90909" fill="white" fill-opacity="0.3"/>
<circle cx="55.8173" cy="37.8183" r="2.90909" fill="white" fill-opacity="0.3"/>
<circle cx="73.2724" cy="37.8183" r="2.90909" fill="white" fill-opacity="0.3"/>
<circle cx="90.7265" cy="37.8183" r="2.90909" fill="white" fill-opacity="0.3"/>
<circle cx="108.182" cy="37.8183" r="2.90909" fill="white" fill-opacity="0.3"/>
<circle cx="125.636" cy="37.8183" r="2.90909" fill="white" fill-opacity="0.3"/>
<circle cx="143.09" cy="37.8183" r="2.90909" fill="white" fill-opacity="0.3"/>
<circle cx="160.545" cy="37.8183" r="2.90909" fill="white" fill-opacity="0.3"/>
<circle cx="3.45401" cy="55.2724" r="2.90909" fill="white" fill-opacity="0.3"/>
<circle cx="20.9081" cy="55.2724" r="2.90909" fill="white" fill-opacity="0.3"/>
<circle cx="38.3632" cy="55.2724" r="2.90909" fill="white" fill-opacity="0.3"/>
<circle cx="55.8173" cy="55.2724" r="2.90909" fill="white" fill-opacity="0.3"/>
<circle cx="73.2724" cy="55.2724" r="2.90909" fill="white" fill-opacity="0.3"/>
<circle cx="90.7265" cy="55.2724" r="2.90909" fill="white" fill-opacity="0.3"/>
<circle cx="108.182" cy="55.2724" r="2.90909" fill="white" fill-opacity="0.3"/>
<circle cx="125.636" cy="55.2724" r="2.90909" fill="white" fill-opacity="0.3"/>
<circle cx="143.09" cy="55.2724" r="2.90909" fill="white" fill-opacity="0.3"/>
<circle cx="160.545" cy="55.2724" r="2.90909" fill="white" fill-opacity="0.3"/>
<circle cx="3.45401" cy="72.7274" r="2.90909" fill="white" fill-opacity="0.3"/>
<circle cx="20.9081" cy="72.7274" r="2.90909" fill="white" fill-opacity="0.3"/>
<circle cx="38.3632" cy="72.7274" r="2.90909" fill="white" fill-opacity="0.3"/>
<circle cx="55.8173" cy="72.7274" r="2.90909" fill="white" fill-opacity="0.3"/>
<circle cx="73.2724" cy="72.7274" r="2.90909" fill="white" fill-opacity="0.3"/>
<circle cx="90.7265" cy="72.7274" r="2.90909" fill="white" fill-opacity="0.3"/>
<circle cx="108.182" cy="72.7274" r="2.90909" fill="white" fill-opacity="0.3"/>
<circle cx="125.636" cy="72.7274" r="2.90909" fill="white" fill-opacity="0.3"/>
<circle cx="143.09" cy="72.7274" r="2.90909" fill="white" fill-opacity="0.3"/>
<circle cx="160.545" cy="72.7274" r="2.90909" fill="white" fill-opacity="0.3"/>
<circle cx="3.45401" cy="90.1815" r="2.90909" fill="white" fill-opacity="0.3"/>
<circle cx="20.9081" cy="90.1815" r="2.90909" fill="white" fill-opacity="0.3"/>
<circle cx="38.3632" cy="90.1815" r="2.90909" fill="white" fill-opacity="0.3"/>
<circle cx="55.8173" cy="90.1815" r="2.90909" fill="white" fill-opacity="0.3"/>
<circle cx="73.2724" cy="90.1815" r="2.90909" fill="white" fill-opacity="0.3"/>
<circle cx="90.7265" cy="90.1815" r="2.90909" fill="white" fill-opacity="0.3"/>
<circle cx="108.182" cy="90.1815" r="2.90909" fill="white" fill-opacity="0.3"/>
<circle cx="125.636" cy="90.1815" r="2.90909" fill="white" fill-opacity="0.3"/>
<circle cx="143.09" cy="90.1815" r="2.90909" fill="white" fill-opacity="0.3"/>
<circle cx="160.545" cy="90.1815" r="2.90909" fill="white" fill-opacity="0.3"/>
<circle cx="3.45401" cy="107.637" r="2.90909" fill="white" fill-opacity="0.3"/>
<circle cx="20.9081" cy="107.637" r="2.90909" fill="white" fill-opacity="0.3"/>
<circle cx="38.3632" cy="107.637" r="2.90909" fill="white" fill-opacity="0.3"/>
<circle cx="55.8173" cy="107.637" r="2.90909" fill="white" fill-opacity="0.3"/>
<circle cx="73.2724" cy="107.637" r="2.90909" fill="white" fill-opacity="0.3"/>
<circle cx="90.7265" cy="107.637" r="2.90909" fill="white" fill-opacity="0.3"/>
<circle cx="108.182" cy="107.637" r="2.90909" fill="white" fill-opacity="0.3"/>
<circle cx="125.636" cy="107.637" r="2.90909" fill="white" fill-opacity="0.3"/>
<circle cx="143.09" cy="107.637" r="2.90909" fill="white" fill-opacity="0.3"/>
<circle cx="160.545" cy="107.637" r="2.90909" fill="white" fill-opacity="0.3"/>
<circle cx="3.45401" cy="107.637" r="2.90909" fill="white" fill-opacity="0.3"/>
<circle cx="20.9081" cy="107.637" r="2.90909" fill="white" fill-opacity="0.3"/>
<circle cx="38.3632" cy="107.637" r="2.90909" fill="white" fill-opacity="0.3"/>
<circle cx="55.8173" cy="107.637" r="2.90909" fill="white" fill-opacity="0.3"/>
<circle cx="73.2724" cy="107.637" r="2.90909" fill="white" fill-opacity="0.3"/>
<circle cx="90.7265" cy="107.637" r="2.90909" fill="white" fill-opacity="0.3"/>
<circle cx="108.182" cy="107.637" r="2.90909" fill="white" fill-opacity="0.3"/>
<circle cx="125.636" cy="107.637" r="2.90909" fill="white" fill-opacity="0.3"/>
<circle cx="143.09" cy="107.637" r="2.90909" fill="white" fill-opacity="0.3"/>
<circle cx="160.545" cy="107.637" r="2.90909" fill="white" fill-opacity="0.3"/>
<circle cx="3.45401" cy="125.091" r="2.90909" fill="white" fill-opacity="0.3"/>
<circle cx="20.9081" cy="125.091" r="2.90909" fill="white" fill-opacity="0.3"/>
<circle cx="38.3632" cy="125.091" r="2.90909" fill="white" fill-opacity="0.3"/>
<circle cx="55.8173" cy="125.091" r="2.90909" fill="white" fill-opacity="0.3"/>
<circle cx="73.2724" cy="125.091" r="2.90909" fill="white" fill-opacity="0.3"/>
<circle cx="90.7265" cy="125.091" r="2.90909" fill="white" fill-opacity="0.3"/>
<circle cx="108.182" cy="125.091" r="2.90909" fill="white" fill-opacity="0.3"/>
<circle cx="125.636" cy="125.091" r="2.90909" fill="white" fill-opacity="0.3"/>
<circle cx="143.09" cy="125.091" r="2.90909" fill="white" fill-opacity="0.3"/>
<circle cx="160.545" cy="125.091" r="2.90909" fill="white" fill-opacity="0.3"/>
</svg>
