<svg width="150" height="108" viewBox="0 0 150 108" fill="none" xmlns="http://www.w3.org/2000/svg">
<g opacity="0.2">
<path d="M3.36377 5.99756C4.97343 5.99756 6.27832 4.69267 6.27832 3.08301C6.27832 1.47335 4.97343 0.168457 3.36377 0.168457C1.75411 0.168457 0.449219 1.47335 0.449219 3.08301C0.449219 4.69267 1.75411 5.99756 3.36377 5.99756Z" fill="#7F7F7F"/>
<path d="M23.895 5.99756C25.5047 5.99756 26.8096 4.69267 26.8096 3.08301C26.8096 1.47335 25.5047 0.168457 23.895 0.168457C22.2854 0.168457 20.9805 1.47335 20.9805 3.08301C20.9805 4.69267 22.2854 5.99756 23.895 5.99756Z" fill="#7F7F7F"/>
<path d="M44.4263 5.99756C46.0359 5.99756 47.3408 4.69267 47.3408 3.08301C47.3408 1.47335 46.0359 0.168457 44.4263 0.168457C42.8166 0.168457 41.5117 1.47335 41.5117 3.08301C41.5117 4.69267 42.8166 5.99756 44.4263 5.99756Z" fill="#7F7F7F"/>
<path d="M64.9614 5.99756C66.5711 5.99756 67.876 4.69267 67.876 3.08301C67.876 1.47335 66.5711 0.168457 64.9614 0.168457C63.3518 0.168457 62.0469 1.47335 62.0469 3.08301C62.0469 4.69267 63.3518 5.99756 64.9614 5.99756Z" fill="#7F7F7F"/>
<path d="M85.4927 5.99756C87.1023 5.99756 88.4072 4.69267 88.4072 3.08301C88.4072 1.47335 87.1023 0.168457 85.4927 0.168457C83.883 0.168457 82.5781 1.47335 82.5781 3.08301C82.5781 4.69267 83.883 5.99756 85.4927 5.99756Z" fill="#7F7F7F"/>
<path d="M106.024 5.99756C107.634 5.99756 108.938 4.69267 108.938 3.08301C108.938 1.47335 107.634 0.168457 106.024 0.168457C104.414 0.168457 103.109 1.47335 103.109 3.08301C103.109 4.69267 104.414 5.99756 106.024 5.99756Z" fill="#7F7F7F"/>
<path d="M126.555 5.99756C128.165 5.99756 129.47 4.69267 129.47 3.08301C129.47 1.47335 128.165 0.168457 126.555 0.168457C124.946 0.168457 123.641 1.47335 123.641 3.08301C123.641 4.69267 124.946 5.99756 126.555 5.99756Z" fill="#7F7F7F"/>
<path d="M147.086 5.99756C148.696 5.99756 150.001 4.69267 150.001 3.08301C150.001 1.47335 148.696 0.168457 147.086 0.168457C145.477 0.168457 144.172 1.47335 144.172 3.08301C144.172 4.69267 145.477 5.99756 147.086 5.99756Z" fill="#7F7F7F"/>
<path d="M3.36377 22.854C4.97343 22.854 6.27832 21.5491 6.27832 19.9395C6.27832 18.3298 4.97343 17.0249 3.36377 17.0249C1.75411 17.0249 0.449219 18.3298 0.449219 19.9395C0.449219 21.5491 1.75411 22.854 3.36377 22.854Z" fill="#7F7F7F"/>
<path d="M23.895 22.854C25.5047 22.854 26.8096 21.5491 26.8096 19.9395C26.8096 18.3298 25.5047 17.0249 23.895 17.0249C22.2854 17.0249 20.9805 18.3298 20.9805 19.9395C20.9805 21.5491 22.2854 22.854 23.895 22.854Z" fill="#7F7F7F"/>
<path d="M44.4263 22.8538C46.0359 22.8538 47.3408 21.5489 47.3408 19.9392C47.3408 18.3295 46.0359 17.0247 44.4263 17.0247C42.8166 17.0247 41.5117 18.3295 41.5117 19.9392C41.5117 21.5489 42.8166 22.8538 44.4263 22.8538Z" fill="#7F7F7F"/>
<path d="M64.9614 22.854C66.5711 22.854 67.876 21.5491 67.876 19.9395C67.876 18.3298 66.5711 17.0249 64.9614 17.0249C63.3518 17.0249 62.0469 18.3298 62.0469 19.9395C62.0469 21.5491 63.3518 22.854 64.9614 22.854Z" fill="#7F7F7F"/>
<path d="M85.4927 22.854C87.1023 22.854 88.4072 21.5491 88.4072 19.9395C88.4072 18.3298 87.1023 17.0249 85.4927 17.0249C83.883 17.0249 82.5781 18.3298 82.5781 19.9395C82.5781 21.5491 83.883 22.854 85.4927 22.854Z" fill="#7F7F7F"/>
<path d="M106.024 22.854C107.634 22.854 108.938 21.5491 108.938 19.9395C108.938 18.3298 107.634 17.0249 106.024 17.0249C104.414 17.0249 103.109 18.3298 103.109 19.9395C103.109 21.5491 104.414 22.854 106.024 22.854Z" fill="#7F7F7F"/>
<path d="M126.555 22.854C128.165 22.854 129.47 21.5491 129.47 19.9395C129.47 18.3298 128.165 17.0249 126.555 17.0249C124.946 17.0249 123.641 18.3298 123.641 19.9395C123.641 21.5491 124.946 22.854 126.555 22.854Z" fill="#7F7F7F"/>
<path d="M147.086 22.8538C148.696 22.8538 150.001 21.5489 150.001 19.9392C150.001 18.3295 148.696 17.0247 147.086 17.0247C145.477 17.0247 144.172 18.3295 144.172 19.9392C144.172 21.5489 145.477 22.8538 147.086 22.8538Z" fill="#7F7F7F"/>
<path d="M3.36377 39.7102C4.97343 39.7102 6.27832 38.4053 6.27832 36.7957C6.27832 35.186 4.97343 33.8811 3.36377 33.8811C1.75411 33.8811 0.449219 35.186 0.449219 36.7957C0.449219 38.4053 1.75411 39.7102 3.36377 39.7102Z" fill="#7F7F7F"/>
<path d="M23.895 39.7105C25.5047 39.7105 26.8096 38.4056 26.8096 36.7959C26.8096 35.1862 25.5047 33.8813 23.895 33.8813C22.2854 33.8813 20.9805 35.1862 20.9805 36.7959C20.9805 38.4056 22.2854 39.7105 23.895 39.7105Z" fill="#7F7F7F"/>
<path d="M44.4263 39.71C46.0359 39.71 47.3408 38.4051 47.3408 36.7954C47.3408 35.1857 46.0359 33.8809 44.4263 33.8809C42.8166 33.8809 41.5117 35.1857 41.5117 36.7954C41.5117 38.4051 42.8166 39.71 44.4263 39.71Z" fill="#7F7F7F"/>
<path d="M64.9614 39.7105C66.5711 39.7105 67.876 38.4056 67.876 36.7959C67.876 35.1862 66.5711 33.8813 64.9614 33.8813C63.3518 33.8813 62.0469 35.1862 62.0469 36.7959C62.0469 38.4056 63.3518 39.7105 64.9614 39.7105Z" fill="#7F7F7F"/>
<path d="M85.4927 39.7105C87.1023 39.7105 88.4072 38.4056 88.4072 36.7959C88.4072 35.1862 87.1023 33.8813 85.4927 33.8813C83.883 33.8813 82.5781 35.1862 82.5781 36.7959C82.5781 38.4056 83.883 39.7105 85.4927 39.7105Z" fill="#7F7F7F"/>
<path d="M106.024 39.71C107.634 39.71 108.938 38.4051 108.938 36.7954C108.938 35.1857 107.634 33.8809 106.024 33.8809C104.414 33.8809 103.109 35.1857 103.109 36.7954C103.109 38.4051 104.414 39.71 106.024 39.71Z" fill="#7F7F7F"/>
<path d="M126.555 39.7105C128.165 39.7105 129.47 38.4056 129.47 36.7959C129.47 35.1862 128.165 33.8813 126.555 33.8813C124.946 33.8813 123.641 35.1862 123.641 36.7959C123.641 38.4056 124.946 39.7105 126.555 39.7105Z" fill="#7F7F7F"/>
<path d="M147.086 39.71C148.696 39.71 150.001 38.4051 150.001 36.7954C150.001 35.1857 148.696 33.8809 147.086 33.8809C145.477 33.8809 144.172 35.1857 144.172 36.7954C144.172 38.4051 145.477 39.71 147.086 39.71Z" fill="#7F7F7F"/>
<path d="M3.36377 56.5667C4.97343 56.5667 6.27832 55.2618 6.27832 53.6521C6.27832 52.0424 4.97343 50.7375 3.36377 50.7375C1.75411 50.7375 0.449219 52.0424 0.449219 53.6521C0.449219 55.2618 1.75411 56.5667 3.36377 56.5667Z" fill="#7F7F7F"/>
<path d="M23.895 56.5667C25.5047 56.5667 26.8096 55.2618 26.8096 53.6521C26.8096 52.0424 25.5047 50.7375 23.895 50.7375C22.2854 50.7375 20.9805 52.0424 20.9805 53.6521C20.9805 55.2618 22.2854 56.5667 23.895 56.5667Z" fill="#7F7F7F"/>
<path d="M44.4263 56.5667C46.0359 56.5667 47.3408 55.2618 47.3408 53.6521C47.3408 52.0424 46.0359 50.7375 44.4263 50.7375C42.8166 50.7375 41.5117 52.0424 41.5117 53.6521C41.5117 55.2618 42.8166 56.5667 44.4263 56.5667Z" fill="#7F7F7F"/>
<path d="M64.9614 56.5667C66.5711 56.5667 67.876 55.2618 67.876 53.6521C67.876 52.0424 66.5711 50.7375 64.9614 50.7375C63.3518 50.7375 62.0469 52.0424 62.0469 53.6521C62.0469 55.2618 63.3518 56.5667 64.9614 56.5667Z" fill="#7F7F7F"/>
<path d="M85.4927 56.5667C87.1023 56.5667 88.4072 55.2618 88.4072 53.6521C88.4072 52.0424 87.1023 50.7375 85.4927 50.7375C83.883 50.7375 82.5781 52.0424 82.5781 53.6521C82.5781 55.2618 83.883 56.5667 85.4927 56.5667Z" fill="#7F7F7F"/>
<path d="M106.024 56.5667C107.634 56.5667 108.938 55.2618 108.938 53.6521C108.938 52.0424 107.634 50.7375 106.024 50.7375C104.414 50.7375 103.109 52.0424 103.109 53.6521C103.109 55.2618 104.414 56.5667 106.024 56.5667Z" fill="#7F7F7F"/>
<path d="M126.555 56.5667C128.165 56.5667 129.47 55.2618 129.47 53.6521C129.47 52.0424 128.165 50.7375 126.555 50.7375C124.946 50.7375 123.641 52.0424 123.641 53.6521C123.641 55.2618 124.946 56.5667 126.555 56.5667Z" fill="#7F7F7F"/>
<path d="M147.086 56.5667C148.696 56.5667 150.001 55.2618 150.001 53.6521C150.001 52.0424 148.696 50.7375 147.086 50.7375C145.477 50.7375 144.172 52.0424 144.172 53.6521C144.172 55.2618 145.477 56.5667 147.086 56.5667Z" fill="#7F7F7F"/>
<path d="M3.36377 73.4229C4.97343 73.4229 6.27832 72.118 6.27832 70.5083C6.27832 68.8986 4.97343 67.5938 3.36377 67.5938C1.75411 67.5938 0.449219 68.8986 0.449219 70.5083C0.449219 72.118 1.75411 73.4229 3.36377 73.4229Z" fill="#7F7F7F"/>
<path d="M23.895 73.4229C25.5047 73.4229 26.8096 72.118 26.8096 70.5083C26.8096 68.8986 25.5047 67.5938 23.895 67.5938C22.2854 67.5938 20.9805 68.8986 20.9805 70.5083C20.9805 72.118 22.2854 73.4229 23.895 73.4229Z" fill="#7F7F7F"/>
<path d="M44.4263 73.4229C46.0359 73.4229 47.3408 72.118 47.3408 70.5083C47.3408 68.8986 46.0359 67.5938 44.4263 67.5938C42.8166 67.5938 41.5117 68.8986 41.5117 70.5083C41.5117 72.118 42.8166 73.4229 44.4263 73.4229Z" fill="#7F7F7F"/>
<path d="M64.9614 73.4229C66.5711 73.4229 67.876 72.118 67.876 70.5083C67.876 68.8986 66.5711 67.5938 64.9614 67.5938C63.3518 67.5938 62.0469 68.8986 62.0469 70.5083C62.0469 72.118 63.3518 73.4229 64.9614 73.4229Z" fill="#7F7F7F"/>
<path d="M85.4927 73.4229C87.1023 73.4229 88.4072 72.118 88.4072 70.5083C88.4072 68.8986 87.1023 67.5938 85.4927 67.5938C83.883 67.5938 82.5781 68.8986 82.5781 70.5083C82.5781 72.118 83.883 73.4229 85.4927 73.4229Z" fill="#7F7F7F"/>
<path d="M106.024 73.4229C107.634 73.4229 108.938 72.118 108.938 70.5083C108.938 68.8986 107.634 67.5938 106.024 67.5938C104.414 67.5938 103.109 68.8986 103.109 70.5083C103.109 72.118 104.414 73.4229 106.024 73.4229Z" fill="#7F7F7F"/>
<path d="M126.555 73.4229C128.165 73.4229 129.47 72.118 129.47 70.5083C129.47 68.8986 128.165 67.5938 126.555 67.5938C124.946 67.5938 123.641 68.8986 123.641 70.5083C123.641 72.118 124.946 73.4229 126.555 73.4229Z" fill="#7F7F7F"/>
<path d="M147.086 73.4229C148.696 73.4229 150.001 72.118 150.001 70.5083C150.001 68.8986 148.696 67.5938 147.086 67.5938C145.477 67.5938 144.172 68.8986 144.172 70.5083C144.172 72.118 145.477 73.4229 147.086 73.4229Z" fill="#7F7F7F"/>
<path d="M3.36377 90.2791C4.97343 90.2791 6.27832 88.9742 6.27832 87.3645C6.27832 85.7548 4.97343 84.45 3.36377 84.45C1.75411 84.45 0.449219 85.7548 0.449219 87.3645C0.449219 88.9742 1.75411 90.2791 3.36377 90.2791Z" fill="#7F7F7F"/>
<path d="M23.895 90.2791C25.5047 90.2791 26.8096 88.9742 26.8096 87.3645C26.8096 85.7548 25.5047 84.45 23.895 84.45C22.2854 84.45 20.9805 85.7548 20.9805 87.3645C20.9805 88.9742 22.2854 90.2791 23.895 90.2791Z" fill="#7F7F7F"/>
<path d="M44.4263 90.2791C46.0359 90.2791 47.3408 88.9742 47.3408 87.3645C47.3408 85.7548 46.0359 84.45 44.4263 84.45C42.8166 84.45 41.5117 85.7548 41.5117 87.3645C41.5117 88.9742 42.8166 90.2791 44.4263 90.2791Z" fill="#7F7F7F"/>
<path d="M64.9614 90.2791C66.5711 90.2791 67.876 88.9742 67.876 87.3645C67.876 85.7548 66.5711 84.45 64.9614 84.45C63.3518 84.45 62.0469 85.7548 62.0469 87.3645C62.0469 88.9742 63.3518 90.2791 64.9614 90.2791Z" fill="#7F7F7F"/>
<path d="M85.4927 90.2791C87.1023 90.2791 88.4072 88.9742 88.4072 87.3645C88.4072 85.7548 87.1023 84.45 85.4927 84.45C83.883 84.45 82.5781 85.7548 82.5781 87.3645C82.5781 88.9742 83.883 90.2791 85.4927 90.2791Z" fill="#7F7F7F"/>
<path d="M106.024 90.2791C107.634 90.2791 108.938 88.9742 108.938 87.3645C108.938 85.7548 107.634 84.45 106.024 84.45C104.414 84.45 103.109 85.7548 103.109 87.3645C103.109 88.9742 104.414 90.2791 106.024 90.2791Z" fill="#7F7F7F"/>
<path d="M126.555 90.2791C128.165 90.2791 129.47 88.9742 129.47 87.3645C129.47 85.7548 128.165 84.45 126.555 84.45C124.946 84.45 123.641 85.7548 123.641 87.3645C123.641 88.9742 124.946 90.2791 126.555 90.2791Z" fill="#7F7F7F"/>
<path d="M147.086 90.2791C148.696 90.2791 150.001 88.9742 150.001 87.3645C150.001 85.7548 148.696 84.45 147.086 84.45C145.477 84.45 144.172 85.7548 144.172 87.3645C144.172 88.9742 145.477 90.2791 147.086 90.2791Z" fill="#7F7F7F"/>
<path d="M3.36377 107.135C4.97343 107.135 6.27832 105.83 6.27832 104.22C6.27832 102.611 4.97343 101.306 3.36377 101.306C1.75411 101.306 0.449219 102.611 0.449219 104.22C0.449219 105.83 1.75411 107.135 3.36377 107.135Z" fill="#7F7F7F"/>
<path d="M23.895 107.135C25.5047 107.135 26.8096 105.83 26.8096 104.221C26.8096 102.611 25.5047 101.306 23.895 101.306C22.2854 101.306 20.9805 102.611 20.9805 104.221C20.9805 105.83 22.2854 107.135 23.895 107.135Z" fill="#7F7F7F"/>
<path d="M44.4263 107.135C46.0359 107.135 47.3408 105.83 47.3408 104.221C47.3408 102.611 46.0359 101.306 44.4263 101.306C42.8166 101.306 41.5117 102.611 41.5117 104.221C41.5117 105.83 42.8166 107.135 44.4263 107.135Z" fill="#7F7F7F"/>
<path d="M64.9614 107.135C66.5711 107.135 67.876 105.83 67.876 104.221C67.876 102.611 66.5711 101.306 64.9614 101.306C63.3518 101.306 62.0469 102.611 62.0469 104.221C62.0469 105.83 63.3518 107.135 64.9614 107.135Z" fill="#7F7F7F"/>
<path d="M85.4927 107.135C87.1023 107.135 88.4072 105.83 88.4072 104.221C88.4072 102.611 87.1023 101.306 85.4927 101.306C83.883 101.306 82.5781 102.611 82.5781 104.221C82.5781 105.83 83.883 107.135 85.4927 107.135Z" fill="#7F7F7F"/>
<path d="M106.024 107.135C107.634 107.135 108.938 105.83 108.938 104.221C108.938 102.611 107.634 101.306 106.024 101.306C104.414 101.306 103.109 102.611 103.109 104.221C103.109 105.83 104.414 107.135 106.024 107.135Z" fill="#7F7F7F"/>
<path d="M126.555 107.135C128.165 107.135 129.47 105.83 129.47 104.22C129.47 102.611 128.165 101.306 126.555 101.306C124.946 101.306 123.641 102.611 123.641 104.22C123.641 105.83 124.946 107.135 126.555 107.135Z" fill="#7F7F7F"/>
<path d="M147.086 107.135C148.696 107.135 150.001 105.83 150.001 104.221C150.001 102.611 148.696 101.306 147.086 101.306C145.477 101.306 144.172 102.611 144.172 104.221C144.172 105.83 145.477 107.135 147.086 107.135Z" fill="#7F7F7F"/>
</g>
</svg>
