<svg width="15" height="12" viewBox="0 0 15 12" fill="none" xmlns="http://www.w3.org/2000/svg">
<path d="M0.9 10.72C1.3 11.1 1.92 11.1 2.3 10.72C3.78 9.26 6.32 6.86 6.36 6.82C6.56 6.62 6.66 6.36 6.66 6.1C6.66 5.86 6.56 5.6 6.36 5.4C6.32 5.36 3.82 2.8 2.34 1.34C1.96 0.959999 1.34 0.959999 0.94 1.34C0.56 1.72 0.56 2.36 0.94 2.74L4.26 6.1L0.9 9.32C0.52 9.7 0.52 10.34 0.9 10.72ZM8.24375 10.72C8.64375 11.1 9.26375 11.1 9.64375 10.72C11.1238 9.26 13.6638 6.86 13.7038 6.82C13.9038 6.62 14.0038 6.36 14.0038 6.1C14.0038 5.86 13.9038 5.6 13.7038 5.4C13.6638 5.36 11.1638 2.8 9.68375 1.34C9.30375 0.959999 8.68375 0.959999 8.28375 1.34C7.90375 1.72 7.90375 2.36 8.28375 2.74L11.6038 6.1L8.24375 9.32C7.86375 9.7 7.86375 10.34 8.24375 10.72Z" fill="black"/>
</svg>
