<svg width="15" height="12" viewBox="0 0 15 12" fill="none" xmlns="http://www.w3.org/2000/svg">
<path d="M14.1 10.72C13.7 11.1 13.08 11.1 12.7 10.72C11.22 9.26 8.68 6.86 8.64 6.82C8.44 6.62 8.34 6.36 8.34 6.1C8.34 5.86 8.44 5.6 8.64 5.4C8.68 5.36 11.18 2.8 12.66 1.34C13.04 0.959999 13.66 0.959999 14.06 1.34C14.44 1.72 14.44 2.36 14.06 2.74L10.74 6.1L14.1 9.32C14.48 9.7 14.48 10.34 14.1 10.72ZM6.75625 10.72C6.35625 11.1 5.73625 11.1 5.35625 10.72C3.87625 9.26 1.33625 6.86 1.29625 6.82C1.09625 6.62 0.99625 6.36 0.99625 6.1C0.99625 5.86 1.09625 5.6 1.29625 5.4C1.33625 5.36 3.83625 2.8 5.31625 1.34C5.69625 0.959999 6.31625 0.959999 6.71625 1.34C7.09625 1.72 7.09625 2.36 6.71625 2.74L3.39625 6.1L6.75625 9.32C7.13625 9.7 7.13625 10.34 6.75625 10.72Z" fill="black"/>
</svg>
