<svg width="139" height="33" viewBox="0 0 139 33" fill="none" xmlns="http://www.w3.org/2000/svg">
<path d="M0.88 0.149999H19.51V3.84H6.55V14.28H16.72V17.925H6.55V33H1.51V3.03L0.88 0.149999ZM39.1838 0.149999L50.6588 33H45.1688L41.6138 22.515H31.2638L27.6638 33H23.2538L34.7738 0.149999H39.1838ZM36.4838 6.63L32.4788 18.87H40.3988L36.4838 6.63ZM80.0375 7.8C80.0375 9 79.7825 10.125 79.2725 11.175C78.7925 12.195 78.0875 13.065 77.1575 13.785C76.2575 14.475 75.2075 14.91 74.0075 15.09C75.5075 15.33 76.8125 15.855 77.9225 16.665C79.0625 17.475 79.9475 18.495 80.5775 19.725C81.2375 20.955 81.5675 22.32 81.5675 23.82C81.5675 25.68 81.2075 27.21 80.4875 28.41C79.7975 29.58 78.8525 30.51 77.6525 31.2C76.4525 31.86 75.1175 32.325 73.6475 32.595C72.1775 32.865 70.6775 33 69.1475 33H59.1125V3.03C59.1125 3 59.0525 2.775 58.9325 2.355C58.8425 1.905 58.7525 1.455 58.6625 1.005C58.5725 0.524998 58.5125 0.239998 58.4825 0.149999H69.7775C71.0675 0.149999 72.3125 0.269998 73.5125 0.509997C74.7425 0.719998 75.8525 1.11 76.8425 1.68C77.8325 2.25 78.6125 3.03 79.1825 4.02C79.7525 5.01 80.0375 6.27 80.0375 7.8ZM74.7725 8.205C74.7725 7.125 74.5325 6.27 74.0525 5.64C73.6025 4.98 72.9725 4.515 72.1625 4.245C71.3825 3.975 70.4975 3.84 69.5075 3.84H64.1525V13.425H68.9225C70.0925 13.425 71.1125 13.245 71.9825 12.885C72.8525 12.525 73.5275 11.97 74.0075 11.22C74.5175 10.44 74.7725 9.435 74.7725 8.205ZM76.2125 23.145C76.2125 21.705 75.8375 20.535 75.0875 19.635C74.3375 18.735 73.3775 18.09 72.2075 17.7C71.0375 17.31 69.8075 17.115 68.5175 17.115H64.1525V29.31H69.1475C70.5275 29.31 71.7425 29.115 72.7925 28.725C73.8725 28.335 74.7125 27.69 75.3125 26.79C75.9125 25.86 76.2125 24.645 76.2125 23.145ZM90.6691 0.149999H96.3391V29.31H109.749V33H91.2991V3.03L90.6691 0.149999ZM118.284 0.149999H138.354V3.84H123.954V14.28H135.069V17.925H123.954V29.31H138.354V33H118.914V3.03L118.284 0.149999Z" fill="black"/>
</svg>
