<svg width="67" height="89" viewBox="0 0 67 89" fill="none" xmlns="http://www.w3.org/2000/svg">
<g opacity="0.2">
<path d="M3.21716 6.4343C4.99394 6.4343 6.43431 4.99393 6.43431 3.21715C6.43431 1.44036 4.99394 0 3.21716 0C1.44037 0 0 1.44036 0 3.21715C0 4.99393 1.44037 6.4343 3.21716 6.4343Z" fill="white"/>
<path d="M3.21716 22.8689C4.99394 22.8689 6.43431 21.4285 6.43431 19.6517C6.43431 17.8749 4.99394 16.4346 3.21716 16.4346C1.44037 16.4346 0 17.8749 0 19.6517C0 21.4285 1.44037 22.8689 3.21716 22.8689Z" fill="white"/>
<path d="M3.21716 39.303C4.99394 39.303 6.43431 37.8626 6.43431 36.0858C6.43431 34.309 4.99394 32.8687 3.21716 32.8687C1.44037 32.8687 0 34.309 0 36.0858C0 37.8626 1.44037 39.303 3.21716 39.303Z" fill="white"/>
<path d="M3.21716 55.737C4.99394 55.737 6.43431 54.2967 6.43431 52.5199C6.43431 50.7431 4.99394 49.3027 3.21716 49.3027C1.44037 49.3027 0 50.7431 0 52.5199C0 54.2967 1.44037 55.737 3.21716 55.737Z" fill="white"/>
<path d="M3.21716 72.1716C4.99394 72.1716 6.43431 70.7312 6.43431 68.9544C6.43431 67.1777 4.99394 65.7373 3.21716 65.7373C1.44037 65.7373 0 67.1777 0 68.9544C0 70.7312 1.44037 72.1716 3.21716 72.1716Z" fill="white"/>
<path d="M3.21716 88.6062C4.99394 88.6062 6.43431 87.1658 6.43431 85.389C6.43431 83.6122 4.99394 82.1719 3.21716 82.1719C1.44037 82.1719 0 83.6122 0 85.389C0 87.1658 1.44037 88.6062 3.21716 88.6062Z" fill="white"/>
<path d="M21.6508 6.4343C23.4275 6.4343 24.8679 4.99394 24.8679 3.21716C24.8679 1.44037 23.4275 0 21.6508 0C19.874 0 18.4336 1.44037 18.4336 3.21716C18.4336 4.99394 19.874 6.4343 21.6508 6.4343Z" fill="white"/>
<path d="M21.6508 22.8689C23.4275 22.8689 24.8679 21.4285 24.8679 19.6517C24.8679 17.8749 23.4275 16.4346 21.6508 16.4346C19.874 16.4346 18.4336 17.8749 18.4336 19.6517C18.4336 21.4285 19.874 22.8689 21.6508 22.8689Z" fill="white"/>
<path d="M21.6508 39.303C23.4275 39.303 24.8679 37.8626 24.8679 36.0858C24.8679 34.309 23.4275 32.8687 21.6508 32.8687C19.874 32.8687 18.4336 34.309 18.4336 36.0858C18.4336 37.8626 19.874 39.303 21.6508 39.303Z" fill="white"/>
<path d="M21.6508 55.737C23.4275 55.737 24.8679 54.2967 24.8679 52.5199C24.8679 50.7431 23.4275 49.3027 21.6508 49.3027C19.874 49.3027 18.4336 50.7431 18.4336 52.5199C18.4336 54.2967 19.874 55.737 21.6508 55.737Z" fill="white"/>
<path d="M21.6508 72.1716C23.4275 72.1716 24.8679 70.7312 24.8679 68.9545C24.8679 67.1777 23.4275 65.7373 21.6508 65.7373C19.874 65.7373 18.4336 67.1777 18.4336 68.9545C18.4336 70.7312 19.874 72.1716 21.6508 72.1716Z" fill="white"/>
<path d="M21.6508 88.6062C23.4275 88.6062 24.8679 87.1658 24.8679 85.389C24.8679 83.6122 23.4275 82.1719 21.6508 82.1719C19.874 82.1719 18.4336 83.6122 18.4336 85.389C18.4336 87.1658 19.874 88.6062 21.6508 88.6062Z" fill="white"/>
<path d="M40.0843 6.4343C41.8611 6.4343 43.3015 4.99393 43.3015 3.21715C43.3015 1.44036 41.8611 0 40.0843 0C38.3076 0 36.8672 1.44036 36.8672 3.21715C36.8672 4.99393 38.3076 6.4343 40.0843 6.4343Z" fill="white"/>
<path d="M40.0843 22.8689C41.8611 22.8689 43.3015 21.4285 43.3015 19.6517C43.3015 17.8749 41.8611 16.4346 40.0843 16.4346C38.3076 16.4346 36.8672 17.8749 36.8672 19.6517C36.8672 21.4285 38.3076 22.8689 40.0843 22.8689Z" fill="white"/>
<path d="M40.0843 39.303C41.8611 39.303 43.3015 37.8626 43.3015 36.0858C43.3015 34.309 41.8611 32.8687 40.0843 32.8687C38.3076 32.8687 36.8672 34.309 36.8672 36.0858C36.8672 37.8626 38.3076 39.303 40.0843 39.303Z" fill="white"/>
<path d="M40.0843 55.737C41.8611 55.737 43.3015 54.2967 43.3015 52.5199C43.3015 50.7431 41.8611 49.3027 40.0843 49.3027C38.3076 49.3027 36.8672 50.7431 36.8672 52.5199C36.8672 54.2967 38.3076 55.737 40.0843 55.737Z" fill="white"/>
<path d="M40.0843 72.1716C41.8611 72.1716 43.3015 70.7312 43.3015 68.9544C43.3015 67.1777 41.8611 65.7373 40.0843 65.7373C38.3076 65.7373 36.8672 67.1777 36.8672 68.9544C36.8672 70.7312 38.3076 72.1716 40.0843 72.1716Z" fill="white"/>
<path d="M40.0843 88.6062C41.8611 88.6062 43.3015 87.1658 43.3015 85.389C43.3015 83.6122 41.8611 82.1719 40.0843 82.1719C38.3076 82.1719 36.8672 83.6122 36.8672 85.389C36.8672 87.1658 38.3076 88.6062 40.0843 88.6062Z" fill="white"/>
<path d="M58.5179 6.4343C60.2947 6.4343 61.7351 4.99393 61.7351 3.21715C61.7351 1.44037 60.2947 0 58.5179 0C56.7412 0 55.3008 1.44037 55.3008 3.21715C55.3008 4.99393 56.7412 6.4343 58.5179 6.4343Z" fill="white"/>
<path d="M58.5179 22.8689C60.2947 22.8689 61.7351 21.4285 61.7351 19.6517C61.7351 17.8749 60.2947 16.4346 58.5179 16.4346C56.7412 16.4346 55.3008 17.8749 55.3008 19.6517C55.3008 21.4285 56.7412 22.8689 58.5179 22.8689Z" fill="white"/>
<path d="M58.5179 39.303C60.2947 39.303 61.7351 37.8626 61.7351 36.0858C61.7351 34.309 60.2947 32.8687 58.5179 32.8687C56.7412 32.8687 55.3008 34.309 55.3008 36.0858C55.3008 37.8626 56.7412 39.303 58.5179 39.303Z" fill="white"/>
<path d="M58.5179 55.737C60.2947 55.737 61.7351 54.2967 61.7351 52.5199C61.7351 50.7431 60.2947 49.3027 58.5179 49.3027C56.7412 49.3027 55.3008 50.7431 55.3008 52.5199C55.3008 54.2967 56.7412 55.737 58.5179 55.737Z" fill="white"/>
<path d="M58.5179 72.1716C60.2947 72.1716 61.7351 70.7312 61.7351 68.9545C61.7351 67.1777 60.2947 65.7373 58.5179 65.7373C56.7412 65.7373 55.3008 67.1777 55.3008 68.9545C55.3008 70.7312 56.7412 72.1716 58.5179 72.1716Z" fill="white"/>
<path d="M58.5179 88.6062C60.2947 88.6062 61.7351 87.1658 61.7351 85.389C61.7351 83.6122 60.2947 82.1719 58.5179 82.1719C56.7412 82.1719 55.3008 83.6122 55.3008 85.389C55.3008 87.1658 56.7412 88.6062 58.5179 88.6062Z" fill="white"/>
</g>
</svg>
