<svg width="82" height="51" viewBox="0 0 82 51" fill="none" xmlns="http://www.w3.org/2000/svg">
<g opacity="0.8">
<path opacity="0.15" d="M0 25.4497C6.96312 25.1144 12.8663 22.4906 17.7094 17.5784C22.5526 12.6662 24.9741 6.80671 24.9741 0C24.9741 6.80671 27.4043 12.6662 32.2647 17.5784C37.1251 22.4906 43.0369 25.1144 50 25.4497C45.4154 25.6509 41.2099 26.9167 37.3837 29.247C33.5574 31.5774 30.5326 34.6622 28.3092 38.5015C26.0858 42.3407 24.9741 46.5069 24.9741 51C24.9741 44.1598 22.5526 38.2752 17.7094 33.3462C12.8663 28.4172 6.96312 25.785 0 25.4497Z" fill="white"/>
<path opacity="0.15" d="M50 42.4832C52.2282 42.3715 54.1172 41.4969 55.667 39.8595C57.2168 38.2221 57.9917 36.2689 57.9917 34C57.9917 36.2689 58.7694 38.2221 60.3247 39.8595C61.88 41.4969 63.7718 42.3715 66 42.4832C64.5329 42.5503 63.1872 42.9722 61.9628 43.749C60.7384 44.5258 59.7704 45.5541 59.0589 46.8338C58.3475 48.1136 57.9917 49.5023 57.9917 51C57.9917 48.7199 57.2168 46.7584 55.667 45.1154C54.1172 43.4724 52.2282 42.595 50 42.4832Z" fill="white"/>
<path opacity="0.15" d="M72 42.4892C73.3926 42.4168 74.5733 41.8509 75.5419 40.7914C76.5105 39.7319 76.9948 38.4681 76.9948 37C76.9948 38.4681 77.4809 39.7319 78.4529 40.7914C79.425 41.8509 80.6074 42.4168 82 42.4892C81.0831 42.5325 80.242 42.8056 79.4767 43.3082C78.7115 43.8108 78.1065 44.4762 77.6618 45.3042C77.2172 46.1323 76.9948 47.0309 76.9948 48C76.9948 46.5247 76.5105 45.2554 75.5419 44.1923C74.5733 43.1292 73.3926 42.5615 72 42.4892Z" fill="white"/>
</g>
</svg>
