<svg width="21" height="21" viewBox="0 0 21 21" fill="none" xmlns="http://www.w3.org/2000/svg">
<path d="M11.1162 17.2382C10.7921 17.3311 10.4484 17.3311 10.1242 17.2382C7.80021 16.4712 2.61621 13.2692 2.61621 7.84219C2.62365 7.26554 2.7446 6.696 2.97217 6.1661C3.19974 5.63621 3.52946 5.15633 3.9425 4.75387C4.35555 4.35141 4.84383 4.03425 5.37945 3.82052C5.91508 3.60678 6.48756 3.50065 7.06421 3.50819C7.74997 3.50508 8.42721 3.66019 9.04327 3.96145C9.65932 4.26272 10.1976 4.70201 10.6162 5.24519C11.0355 4.7027 11.5738 4.26389 12.1898 3.9627C12.8057 3.6615 13.4826 3.50599 14.1682 3.50819C14.7449 3.50065 15.3173 3.60678 15.853 3.82052C16.3886 4.03425 16.8769 4.35141 17.2899 4.75387C17.703 5.15633 18.0327 5.63621 18.2603 6.1661C18.4878 6.696 18.6088 7.26554 18.6162 7.84219C18.6162 13.2692 13.4322 16.4712 11.1162 17.2382Z" stroke="#5DDF51" stroke-width="1.5" stroke-linecap="round" stroke-linejoin="round"/>
</svg>
