<svg width="18" height="18" viewBox="0 0 18 18" fill="none" xmlns="http://www.w3.org/2000/svg">
<g clip-path="url(#clip0_4_147)">
<path fill-rule="evenodd" clip-rule="evenodd" d="M17.4984 17.6H14.0784V11.6158C14.0784 9.97424 13.3543 9.05835 12.0555 9.05835C10.6422 9.05835 9.80344 10.0127 9.80344 11.6158V17.6H6.38344V6.485H9.80344V7.73494C9.80344 7.73494 10.8765 5.8521 13.2944 5.8521C15.7132 5.8521 17.4984 7.32812 17.4984 10.3822V17.6ZM2.48635 4.70737C1.33295 4.70737 0.398438 3.76521 0.398438 2.60327C0.398438 1.44218 1.33295 0.5 2.48635 0.5C3.63889 0.5 4.5734 1.44218 4.5734 2.60327C4.57425 3.76521 3.63889 4.70737 2.48635 4.70737ZM0.398438 17.6H4.67344V6.485H0.398438V17.6Z" fill="white"/>
</g>
<defs>
<clipPath id="clip0_4_147">
<rect width="17.1" height="17.1" fill="white" transform="translate(0.398438 0.5)"/>
</clipPath>
</defs>
</svg>
