<svg width="17" height="16" viewBox="0 0 17 16" fill="none" xmlns="http://www.w3.org/2000/svg">
<path d="M8.18266 2.62003e-05C6.65503 -0.00380122 5.15693 0.411784 3.85852 1.19958C2.56011 1.98737 1.51344 3.11578 0.837402 4.45665L3.59455 6.51491C3.91329 5.57058 4.5284 4.7488 5.35223 4.16668C6.17606 3.58455 7.16658 3.27178 8.18266 3.27293C9.28161 3.27176 10.3468 3.64455 11.1959 4.32746L13.5774 1.99976C12.0883 0.71179 10.1698 0.000637123 8.18266 2.62003e-05Z" fill="#757D80"/>
<path d="M0.84082 4.45552L3.59458 6.51488C3.91344 5.57019 4.52889 4.74816 5.35318 4.166C6.17746 3.58384 7.16849 3.27129 8.18494 3.2729C9.2839 3.27174 10.3491 3.64452 11.1982 4.32743L13.5797 1.99974C12.0907 0.712281 10.1728 0.00118535 8.18607 0" fill="#757D80"/>
<path d="M3.34942 7.99877C3.34942 7.92478 3.34942 7.85191 3.35844 7.77793C3.37829 7.34763 3.4576 6.92195 3.59422 6.5125L0.840456 4.45312C0.320273 5.48937 0.035842 6.6237 0.00676882 7.77793C0.00676882 7.8508 0 7.92368 0 7.99877C0 8.07385 4.72794e-08 8.14564 0.00676882 8.21962C0.0358387 9.37253 0.319474 10.5056 0.8382 11.5411L3.59084 9.47843C3.45541 9.07104 3.37686 8.64761 3.35731 8.21962C3.35506 8.14564 3.34942 8.07275 3.34942 7.99877Z" fill="#757D80"/>
<path d="M0.839355 11.54L3.59199 9.47732C3.45657 9.06993 3.37801 8.6465 3.35847 8.21851C3.35847 8.14563 3.34944 8.07276 3.34944 7.99767C3.34944 7.92258 3.34944 7.85081 3.35847 7.77683C3.37832 7.34653 3.45763 6.92084 3.59424 6.51138L0.840483 4.45312" fill="#757D80"/>
<path d="M10.9037 12.0284C10.0834 12.5077 9.14119 12.75 8.18607 12.7273C7.17 12.7268 6.17983 12.4135 5.35579 11.8316C4.53175 11.2498 3.9156 10.4289 3.59458 9.48535L0.84082 11.5436C1.69011 13.2128 3.10567 14.5411 4.84526 15.3013C6.58484 16.0615 8.54028 16.2063 10.3769 15.7109C11.5489 15.3967 12.6264 14.8112 13.5187 14.0038L10.9037 12.0284Z" fill="#757D80"/>
<path d="M0.84082 11.5439C1.68994 13.2133 3.10549 14.5417 4.84512 15.302C6.58476 16.0622 8.54028 16.2069 10.3769 15.7112C11.5484 15.3983 12.626 14.8143 13.5187 14.0086L10.9037 12.0298C10.0834 12.5091 9.14119 12.7514 8.18607 12.7288C7.16174 12.7284 6.16396 12.4098 5.33641 11.8189" fill="#757D80"/>
<path d="M15.8133 6.45996H8.2627V9.54072H12.5767C12.4799 10.043 12.2823 10.5215 11.9954 10.9486C11.7084 11.3756 11.3377 11.7427 10.9048 12.0285L13.5198 14.0073C14.2612 13.3261 14.8534 12.5045 15.2605 11.5924C15.7632 10.4413 16.0149 9.20017 15.9994 7.94844C15.9899 7.44733 15.9275 6.94853 15.8133 6.45996Z" fill="#757D80"/>
<path d="M13.519 14.0057C14.263 13.3199 14.857 12.4934 15.2654 11.5764C15.7664 10.4281 16.0169 9.18996 16.0009 7.94136C15.9908 7.4409 15.9276 6.9428 15.8126 6.45508H15.3432" fill="#757D80"/>
<path d="M8.2627 7.74219V9.53875H12.4548" fill="#757D80"/>
</svg>
