<svg width="22" height="22" viewBox="0 0 22 22" fill="none" xmlns="http://www.w3.org/2000/svg">
<path d="M13.3196 8.68125L8.68125 13.3196C8.08542 12.7237 7.71875 11.9079 7.71875 11.0004C7.71875 9.18542 9.18542 7.71875 11.0004 7.71875C11.9079 7.71875 12.7237 8.08542 13.3196 8.68125Z" stroke="#858484" stroke-width="1.5" stroke-linecap="round" stroke-linejoin="round"/>
<path d="M16.3349 5.28895C14.7307 4.07895 12.8974 3.41895 10.9999 3.41895C7.76402 3.41895 4.74819 5.32561 2.64902 8.62561C1.82402 9.91811 1.82402 12.0906 2.64902 13.3831C3.37319 14.5198 4.21652 15.5006 5.13319 16.2889" stroke="#858484" stroke-width="1.5" stroke-linecap="round" stroke-linejoin="round"/>
<path d="M7.71875 17.9029C8.76375 18.3429 9.87292 18.5812 11.0004 18.5812C14.2362 18.5812 17.2521 16.6745 19.3512 13.3745C20.1762 12.082 20.1762 9.90953 19.3512 8.61703C19.0487 8.14036 18.7187 7.6912 18.3796 7.26953" stroke="#858484" stroke-width="1.5" stroke-linecap="round" stroke-linejoin="round"/>
<path d="M14.2178 11.6416C13.9795 12.9341 12.9253 13.9883 11.6328 14.2266" stroke="#858484" stroke-width="1.5" stroke-linecap="round" stroke-linejoin="round"/>
<path d="M8.68051 13.3193L1.83301 20.1668" stroke="#858484" stroke-width="1.5" stroke-linecap="round" stroke-linejoin="round"/>
<path d="M20.1668 1.83301L13.3193 8.68051" stroke="#858484" stroke-width="1.5" stroke-linecap="round" stroke-linejoin="round"/>
</svg>
