<svg width="67" height="100" viewBox="0 0 67 100" fill="none" xmlns="http://www.w3.org/2000/svg">
<path d="M54.7227 51.8632L55.715 51.7389L54.7227 51.8632ZM23.3786 33.5453L24.2084 34.1034L23.3786 33.5453ZM47.0044 0.441465L50.5213 11.4399L58.2878 2.89494L47.0044 0.441465ZM1.23857 99.6959C10.8927 96.8434 25.1908 91.0614 36.7251 82.9587C48.1955 74.901 57.2864 64.2872 55.715 51.7389L53.7305 51.9874C55.1527 63.3444 46.9448 73.3354 35.5755 81.3222C24.2701 89.264 10.1876 94.9663 0.671856 97.7778L1.23857 99.6959ZM55.715 51.7389C53.8149 36.5663 47.2924 29.3392 40.1439 27.2451C33.1093 25.1842 25.7537 28.2222 22.5488 32.9872L24.2084 34.1034C26.9113 30.0846 33.3567 27.3408 39.5817 29.1644C45.6928 30.9547 51.8885 37.2785 53.7305 51.9874L55.715 51.7389ZM22.5488 32.9872C20.1383 36.5713 21.1137 41.057 23.6596 45.0637C26.2281 49.106 30.5486 52.951 35.4717 55.5499C40.3907 58.1466 46.0316 59.5611 51.2393 58.5658C56.5093 57.5585 61.1863 54.1099 64.1285 47.3019L62.2926 46.5085C59.5873 52.7684 55.4214 55.7303 50.8638 56.6014C46.244 57.4843 41.0727 56.2451 36.4054 53.7812C31.7423 51.3196 27.7026 47.6973 25.3476 43.9911C22.97 40.2492 22.4585 36.7052 24.2084 34.1034L22.5488 32.9872ZM64.1285 47.3019C71.4276 30.4124 62.8289 14.9504 54.4008 5.81787L52.931 7.17426C61.1622 16.0935 69.1186 30.7137 62.2926 46.5085L64.1285 47.3019Z" fill="white" fill-opacity="0.2"/>
</svg>
