<svg width="19" height="15" viewBox="0 0 19 15" fill="none" xmlns="http://www.w3.org/2000/svg">
<path fill-rule="evenodd" clip-rule="evenodd" d="M5.66395 14.3991C12.4598 14.3991 16.1769 8.85859 16.1769 4.05445C16.1769 3.89674 16.1769 3.74021 16.1661 3.58426C16.8892 3.07035 17.5132 2.43227 18.0094 1.70217C17.3358 1.99634 16.62 2.18926 15.8879 2.27432C16.6587 1.81977 17.2359 1.10566 17.5123 0.263035C16.7866 0.686564 15.9932 0.985473 15.1657 1.14585C13.7664 -0.317899 11.4261 -0.388818 9.93758 0.988098C8.97858 1.87591 8.57067 3.19963 8.86873 4.46225C5.89808 4.31517 3.13003 2.93473 1.25345 0.663797C0.272842 2.32513 0.774404 4.44964 2.39795 5.51644C1.80994 5.49961 1.23454 5.34383 0.720376 5.06207V5.10821C0.721276 6.83867 1.96122 8.32867 3.68472 8.67157C3.14084 8.81776 2.56994 8.83896 2.01705 8.73353C2.5006 10.215 3.88823 11.2297 5.46855 11.2589C4.16017 12.2708 2.54383 12.8202 0.879759 12.8185C0.586206 12.8176 0.292653 12.8007 0 12.7662C1.69018 13.833 3.65591 14.3991 5.66395 14.3965" fill="#757D80"/>
</svg>
