<svg width="114" height="96" viewBox="0 0 114 96" fill="none" xmlns="http://www.w3.org/2000/svg">
<path style="mix-blend-mode:color-burn" opacity="0.2" d="M50.2531 18.0559C37.8161 17.6239 25.5351 13.9369 13.1211 14.8019C0.707132 15.6669 -12.7569 23.1349 -14.4789 35.4589C-15.5269 42.9499 -12.0639 50.9439 -14.8969 57.9589C-17.9659 65.5589 -27.4969 69.3869 -29.6189 77.3039C-31.8779 85.7389 -23.7189 94.1449 -15.0619 95.2859C-6.40488 96.4269 2.05812 92.4349 9.60612 88.0429C17.1541 83.6509 24.7001 78.6299 33.3451 77.3949C51.3091 74.8289 69.0661 89.2099 86.6551 84.7489C96.0131 82.3749 103.444 74.8179 107.585 66.0969C111.726 57.3759 112.965 47.5649 113.333 37.9169C113.71 28.0499 113.054 17.5669 107.518 9.39091C101.318 0.232909 88.6471 -3.84909 81.3681 4.65291C73.0701 14.3439 63.3141 18.5089 50.2531 18.0559Z" fill="url(#paint0_linear_1006_1429)"/>
<defs>
<linearGradient id="paint0_linear_1006_1429" x1="49.5982" y1="114.771" x2="43.2782" y2="6.2251" gradientUnits="userSpaceOnUse">
<stop stop-color="#B8B8B8"/>
<stop offset="0.212" stop-color="#CECECE"/>
<stop offset="0.515" stop-color="#E9E9E9"/>
<stop offset="0.785" stop-color="#F9F9F9"/>
<stop offset="0.995" stop-color="white"/>
</linearGradient>
</defs>
</svg>
