<svg width="24" height="24" viewBox="0 0 24 24" fill="none" xmlns="http://www.w3.org/2000/svg">
<path d="M10.4569 2.87383C11.2496 1.69599 12.9828 1.69599 13.7755 2.87383L14.324 3.68892C14.773 4.35605 15.5778 4.68943 16.367 4.53515L17.3312 4.34666C18.7245 4.07428 19.9501 5.29987 19.6778 6.69322L19.4893 7.65744C19.335 8.44663 19.6684 9.25146 20.3355 9.70041L21.1506 10.2489C22.3284 11.0416 22.3284 12.7748 21.1506 13.5675L20.3355 14.116C19.6684 14.5649 19.335 15.3698 19.4893 16.159L19.6778 17.1232C19.9501 18.5165 18.7245 19.7421 17.3312 19.4697L16.367 19.2813C15.5778 19.127 14.773 19.4604 14.324 20.1275L13.7755 20.9426C12.9828 22.1204 11.2496 22.1204 10.4569 20.9426L9.90842 20.1275C9.45947 19.4604 8.65463 19.127 7.86544 19.2813L6.90122 19.4697C5.50788 19.7421 4.28229 18.5165 4.55467 17.1232L4.74316 16.159C4.89743 15.3698 4.56406 14.5649 3.89693 14.116L3.08184 13.5675C1.904 12.7748 1.904 11.0416 3.08184 10.2489L3.89693 9.70041C4.56406 9.25146 4.89743 8.44662 4.74316 7.65744L4.55467 6.69322C4.28229 5.29987 5.50788 4.07428 6.90122 4.34666L7.86545 4.53515C8.65463 4.68943 9.45947 4.35605 9.90842 3.68892L10.4569 2.87383Z" fill="#FEDA03"/>
<path d="M15.9492 9.46875L11.1575 14.3475L8.97949 12.1299" stroke="black" stroke-width="1.5" stroke-linecap="round" stroke-linejoin="round"/>
</svg>
