<svg width="14" height="15" viewBox="0 0 14 15" fill="none" xmlns="http://www.w3.org/2000/svg">
<path d="M11.0025 4.68853C12.2972 4.68853 13.3467 3.63897 13.3467 2.34426C13.3467 1.04956 12.2972 0 11.0025 0C9.70777 0 8.6582 1.04956 8.6582 2.34426C8.6582 3.63897 9.70777 4.68853 11.0025 4.68853Z" fill="white"/>
<path d="M2.34426 4.68853C3.63897 4.68853 4.68853 3.63897 4.68853 2.34426C4.68853 1.04956 3.63897 0 2.34426 0C1.04956 0 0 1.04956 0 2.34426C0 3.63897 1.04956 4.68853 2.34426 4.68853Z" fill="white"/>
<path d="M11.0025 14.3001C12.2972 14.3001 13.3467 13.2505 13.3467 11.9558C13.3467 10.6611 12.2972 9.61157 11.0025 9.61157C9.70777 9.61157 8.6582 10.6611 8.6582 11.9558C8.6582 13.2505 9.70777 14.3001 11.0025 14.3001Z" fill="white"/>
<path d="M2.34426 14.3001C3.63897 14.3001 4.68853 13.2505 4.68853 11.9558C4.68853 10.6611 3.63897 9.61157 2.34426 9.61157C1.04956 9.61157 0 10.6611 0 11.9558C0 13.2505 1.04956 14.3001 2.34426 14.3001Z" fill="white"/>
</svg>
