<svg width="19" height="15" viewBox="0 0 19 15" fill="none" xmlns="http://www.w3.org/2000/svg">
<path fill-rule="evenodd" clip-rule="evenodd" d="M6.16397 14.6973C12.9598 14.6973 16.677 9.15775 16.677 4.35449C16.677 4.1968 16.677 4.0403 16.6662 3.88439C17.3893 3.37057 18.0133 2.73261 18.5094 2.00264C17.8359 2.29676 17.12 2.48964 16.3879 2.57468C17.1587 2.12022 17.7359 1.40624 18.0124 0.563768C17.2866 0.987219 16.4933 1.28607 15.6658 1.44643C14.2664 -0.0170591 11.9261 -0.0879653 10.4376 1.2887C9.47861 2.17635 9.0707 3.49983 9.36875 4.76221C6.39809 4.61516 3.63004 3.23497 1.75346 0.964457C0.772843 2.62548 1.27441 4.74961 2.89796 5.81622C2.30995 5.79938 1.73455 5.64363 1.22038 5.36193V5.40806C1.22128 7.1382 2.46123 8.62793 4.18473 8.97076C3.64085 9.11693 3.06995 9.13813 2.51706 9.03271C3.00061 10.5139 4.38824 11.5284 5.96857 11.5577C4.66018 12.5693 3.04383 13.1187 1.37976 13.1169C1.08621 13.116 0.792654 13.0992 0.5 13.0646C2.19019 14.1312 4.15592 14.6973 6.16397 14.6946" fill="white"/>
</svg>
