<svg width="23" height="23" viewBox="0 0 23 23" fill="none" xmlns="http://www.w3.org/2000/svg">
<path d="M21.4017 9.43972C21.4462 8.15151 21.1645 6.87293 20.5827 5.72272C20.188 5.25076 19.6401 4.93226 19.0347 4.82272C16.5305 4.59549 14.0159 4.50236 11.5017 4.54372C8.99667 4.50048 6.49112 4.59061 3.99568 4.81372C3.50232 4.90346 3.04575 5.13488 2.68168 5.47972C1.87168 6.22672 1.78168 7.50472 1.69168 8.58472C1.56111 10.5265 1.56111 12.4749 1.69168 14.4167C1.71772 15.0246 1.80823 15.628 1.96168 16.2167C2.0702 16.6713 2.28975 17.0918 2.60068 17.4407C2.96723 17.8038 3.43443 18.0484 3.94168 18.1427C5.88201 18.3822 7.83708 18.4815 9.79169 18.4397C12.9417 18.4847 15.7047 18.4397 18.9717 18.1877C19.4914 18.0992 19.9718 17.8543 20.3487 17.4857C20.6006 17.2336 20.7889 16.9251 20.8977 16.5857C21.2196 15.5981 21.3776 14.5644 21.3657 13.5257C21.4017 13.0217 21.4017 9.97972 21.4017 9.43972ZM9.46768 14.0657V8.49472L14.7957 11.2937C13.3017 12.1217 11.3307 13.0577 9.46768 14.0657Z" fill="white"/>
</svg>
